<svg xmlns="http://www.w3.org/2000/svg" viewBox="0 0 32 32"><g fill="none" fill-rule="evenodd" transform="translate(0 3)"><path fill="#EA5D0B" d="M18.84 26.13c2.27 1.57 6.78-1 10.05-5.75 3.28-4.75 4.1-9.86 1.82-11.43-2.28-1.58-6.67.86-9.94 5.6-3.28 4.76-4.2 10-1.93 11.58"/><path fill="#0854A1" d="M13.16 26.13c-2.27 1.57-6.78-1-10.05-5.75C-.17 15.63-1 10.52 1.29 8.95c2.28-1.58 6.67.86 9.94 5.6 3.28 4.76 4.2 10 1.93 11.58"/><path fill="#009CCE" d="M26.45 5c0-2.76-4.68-5-10.45-5C10.22 0 5.54 2.24 5.54 5s4.68 5 10.46 5c5.77 0 10.45-2.24 10.45-5"/></g></svg>