<svg id="Layer_1" data-name="Layer 1" xmlns="http://www.w3.org/2000/svg" viewBox="0 0 48 48"><defs><style>.cls-1{fill:#019bc5;}.cls-2{fill:#e86026;}.cls-3{fill:#005b9a;}</style></defs><title>bouyguesbox</title><path class="cls-1" d="M4.87,34.66a2.82,2.82,0,0,0-2.19-.87,2.59,2.59,0,0,0-1.61.54V31.18a.54.54,0,1,0-1.07,0v8.6a.6.6,0,0,0,.38.56,6.45,6.45,0,0,0,2.3.41,2.81,2.81,0,0,0,2.19-.87,3.82,3.82,0,0,0,.69-2.61,3.85,3.85,0,0,0-.69-2.61Zm-.78,4.51a1.72,1.72,0,0,1-1.41.58,4.75,4.75,0,0,1-1.47-.26.19.19,0,0,1-.13-.18V36a1.08,1.08,0,0,1,.34-.81,2,2,0,0,1,1.26-.37,1.71,1.71,0,0,1,1.41.58,3.11,3.11,0,0,1,.39,1.9,3.15,3.15,0,0,1-.39,1.91Zm7.27-4.49a2.78,2.78,0,0,0-2.19-.89A2.8,2.8,0,0,0,7,34.68a3.73,3.73,0,0,0-.69,2.53A4.12,4.12,0,0,0,7,39.87a2.79,2.79,0,0,0,2.19.88,2.8,2.8,0,0,0,2.19-.88,4,4,0,0,0,.69-2.66,3.61,3.61,0,0,0-.69-2.53Zm-.78,4.47a1.73,1.73,0,0,1-1.41.6,1.73,1.73,0,0,1-1.41-.6,3.31,3.31,0,0,1-.38-1.94,2.91,2.91,0,0,1,.38-1.82,1.73,1.73,0,0,1,1.41-.6,1.73,1.73,0,0,1,1.41.6A2.84,2.84,0,0,1,11,37.21a3.23,3.23,0,0,1-.39,1.94ZM18,34.47a.53.53,0,1,0-1.05,0v4.94a.24.24,0,0,1-.13.2,3.75,3.75,0,0,1-1.36.14,1.72,1.72,0,0,1-1.35-.62,3.52,3.52,0,0,1-.36-2V34.47a.53.53,0,0,0-.53-.53.52.52,0,0,0-.52.53v2.71a4.15,4.15,0,0,0,.67,2.7,2.79,2.79,0,0,0,2.09.88,6,6,0,0,0,2.15-.28.67.67,0,0,0,.39-.62V34.47ZM21.74,39a.18.18,0,0,1-.16.1c-.08,0-.14-.09-.16-.12-.17-.24-1.48-3.86-1.76-4.65A.53.53,0,0,0,19,34a.51.51,0,0,0-.3.66l1.7,4.5a1.45,1.45,0,0,0,.9,1l-1,2.74a.52.52,0,0,0,.3.67.53.53,0,0,0,.68-.3l3.25-8.6a.52.52,0,0,0-1-.36L21.74,39Zm8.39-4.21a.55.55,0,0,0-.33-.51,6.2,6.2,0,0,0-2.35-.44,2.85,2.85,0,0,0-2.19.87,4.16,4.16,0,0,0-.69,2.7,3.61,3.61,0,0,0,.69,2.51,2.81,2.81,0,0,0,2.19.89,2.62,2.62,0,0,0,1.62-.55v.9a1.71,1.71,0,0,1-.35,1.14,1.23,1.23,0,0,1-1,.4,3.56,3.56,0,0,1-.84-.1,5.54,5.54,0,0,1-.93-.39.54.54,0,0,0-.63.22.52.52,0,0,0,.17.7,4.3,4.3,0,0,0,1.12.44,4.41,4.41,0,0,0,1.11.15,2.38,2.38,0,0,0,1-.2,2.07,2.07,0,0,0,.75-.54,2.21,2.21,0,0,0,.45-.81,3.29,3.29,0,0,0,.15-1V34.74Zm-1.08,3.83a1,1,0,0,1-.34.8,2,2,0,0,1-1.26.38A1.74,1.74,0,0,1,26,39.17a2.81,2.81,0,0,1-.39-1.81,3.4,3.4,0,0,1,.39-2,1.72,1.72,0,0,1,1.41-.58,4.69,4.69,0,0,1,1.46.26.2.2,0,0,1,.14.19v3.33Zm7.2-4.1a.52.52,0,0,0-.52-.53.53.53,0,0,0-.53.53v4.94a.23.23,0,0,1-.14.2,3.65,3.65,0,0,1-1.35.14,1.71,1.71,0,0,1-1.35-.62,3.52,3.52,0,0,1-.36-2V34.47a.53.53,0,0,0-.53-.53.52.52,0,0,0-.52.53v2.71a4.15,4.15,0,0,0,.67,2.7,2.79,2.79,0,0,0,2.09.88,6,6,0,0,0,2.15-.28.67.67,0,0,0,.39-.62V34.47Zm5.9.19a2.94,2.94,0,0,0-2.22-.87,2.86,2.86,0,0,0-2.16.87,2.83,2.83,0,0,0-.55,1.21,5.54,5.54,0,0,0-.13,1.4,4,4,0,0,0,.68,2.61,2.83,2.83,0,0,0,2.19.88,4,4,0,0,0,2.28-.51.66.66,0,0,0,.25-.32.47.47,0,0,0,0-.17.49.49,0,0,0-.49-.49l-.18,0-.16.08a2.93,2.93,0,0,1-1.73.37,1.71,1.71,0,0,1-1.41-.58,2.82,2.82,0,0,1-.37-1.73h4.11a.56.56,0,0,0,.55-.56,3.31,3.31,0,0,0-.69-2.22ZM38.2,36.48a1.73,1.73,0,0,1,.63-1.38,1.75,1.75,0,0,1,1.08-.31,1.87,1.87,0,0,1,1.19.32,1.71,1.71,0,0,1,.64,1.37Zm8.87-1.29h0a1.84,1.84,0,0,1-.25-.09,3.62,3.62,0,0,0-1.21-.28,3.26,3.26,0,0,0-.5,0,1.6,1.6,0,0,0-.35.12,1,1,0,0,0-.24.22.58.58,0,0,0-.09.33c0,.43.45.81,1.33,1,1.05.2,2.24.73,2.24,2.08a2.42,2.42,0,0,1-.2.9,1.82,1.82,0,0,1-.5.63,2.36,2.36,0,0,1-.77.41,4.16,4.16,0,0,1-1.17.2,3.62,3.62,0,0,1-1.94-.5.46.46,0,0,1-.16-.15.47.47,0,0,1-.11-.31.51.51,0,0,1,.51-.51.5.5,0,0,1,.24.06l.06,0a3,3,0,0,0,1.38.34,2.31,2.31,0,0,0,1.19-.33,1,1,0,0,0,.37-.78c0-.58-.7-.91-1.35-1-1.46-.31-2.2-1-2.2-2A1.52,1.52,0,0,1,44,34.24a2.89,2.89,0,0,1,1.65-.45,3.31,3.31,0,0,1,1.76.43.62.62,0,0,1,.28.49v0a.48.48,0,0,1-.47.48ZM31.65,43.57h-.13a.08.08,0,0,1-.08-.07V42.23H31a.08.08,0,0,1-.08-.07V42A.09.09,0,0,1,31,42h1.11a.08.08,0,0,1,.08.08v.12a.07.07,0,0,1-.08.07h-.41V43.5a.08.08,0,0,1-.08.07Zm3,0h-1a.07.07,0,0,1-.08-.07V42a.08.08,0,0,1,.08-.08h1a.08.08,0,0,1,.08.08v.12a.07.07,0,0,1-.08.07h-.79v.4h.66a.07.07,0,0,1,.08.07v.12a.07.07,0,0,1-.08.07h-.66v.42h.79a.07.07,0,0,1,.08.07v.12a.08.08,0,0,1-.08.07Zm2.6,0h-1a.07.07,0,0,1-.08-.07V42a.08.08,0,0,1,.08-.08h.13a.09.09,0,0,1,.08.08V43.3h.79a.09.09,0,0,1,.09.08v.12a.08.08,0,0,1-.09.07Zm2.38,0h-1a.08.08,0,0,1-.08-.07V42a.09.09,0,0,1,.08-.08h1a.09.09,0,0,1,.09.08v.12a.08.08,0,0,1-.09.07H38.8v.4h.66a.08.08,0,0,1,.09.07v.12a.08.08,0,0,1-.09.07H38.8v.42h.79a.08.08,0,0,1,.09.07v.12a.08.08,0,0,1-.09.07Zm2.65-.48h0a.06.06,0,0,1,.06,0,.06.06,0,0,1,0,.07.6.6,0,0,1-.16.24.76.76,0,0,1-.48.17.72.72,0,0,1-.48-.17c-.18-.16-.21-.33-.21-.66s0-.5.21-.66a.72.72,0,0,1,.48-.17.76.76,0,0,1,.48.17.54.54,0,0,1,.16.24.06.06,0,0,1,0,.07.05.05,0,0,1,0,0l-.13,0a.1.1,0,0,1-.1,0,.27.27,0,0,0-.1-.15.35.35,0,0,0-.25-.09.39.39,0,0,0-.26.09c-.1.08-.14.17-.14.49s0,.41.14.49a.42.42,0,0,0,.52,0,.44.44,0,0,0,.1-.15.09.09,0,0,1,.09,0Zm2.46-1h0c.18.16.21.33.21.66s0,.49-.21.65a.68.68,0,0,1-.48.18.7.7,0,0,1-.48-.18c-.18-.16-.21-.32-.21-.65s0-.5.21-.66a.76.76,0,0,1,.48-.17A.74.74,0,0,1,44.7,42.11Zm-.22,1.14h0c.09-.09.13-.18.13-.49s0-.41-.13-.49a.42.42,0,0,0-.52,0c-.09.08-.13.17-.13.49s0,.4.13.48a.36.36,0,0,0,.26.09A.35.35,0,0,0,44.48,43.25Zm3.09.32h-.12a.08.08,0,0,1-.09-.07v-.79l-.34.82a.08.08,0,0,1-.07,0h-.13a.08.08,0,0,1-.07,0l-.35-.83v.8a.08.08,0,0,1-.09.07h-.12a.08.08,0,0,1-.09-.07V42a.09.09,0,0,1,.09-.08h.12a.09.09,0,0,1,.08,0l.5,1.18L47.37,42a.09.09,0,0,1,.08,0h.12a.08.08,0,0,1,.08.08V43.5a.07.07,0,0,1-.08.07Z"/><path class="cls-2" d="M26.66,28.83c2.14,1.48,6.36-.93,9.43-5.38s3.84-9.26,1.71-10.73-6.25.81-9.33,5.27-3.94,9.37-1.81,10.85Z"/><path class="cls-3" d="M21.34,28.83c-2.14,1.48-6.36-.93-9.43-5.38S8.07,14.19,10.2,12.72s6.25.81,9.33,5.27,3.94,9.37,1.81,10.85Z"/><ellipse class="cls-1" cx="24" cy="9.02" rx="9.81" ry="4.69"/></svg>